<?xml version="1.0" standalone="no"?><!DOCTYPE svg PUBLIC "-//W3C//DTD SVG 1.1//EN" "http://www.w3.org/Graphics/SVG/1.1/DTD/svg11.dtd"><svg t="1589883114275" class="icon" viewBox="0 0 1160 1024" version="1.1" xmlns="http://www.w3.org/2000/svg" p-id="1854" xmlns:xlink="http://www.w3.org/1999/xlink" width="226.5625" height="200"><defs><style type="text/css"></style></defs><path d="M575.512576 968.772267c26.692267 0 53.384533-9.557333 76.322133-28.603734 137.4208-122.197333 372.189867-330.205867 395.127467-353.143466 76.322133-76.322133 110.660267-181.316267 97.348267-288.221867-19.114667-150.801067-143.1552-276.753067-295.867734-295.867733a343.04 343.04 0 0 0-274.8416 85.947733C499.190443 22.050133 399.862443-8.465067 298.691243 2.935467 144.067243 22.050133 23.917909 144.247467 2.823509 298.8032-10.488491 405.7088 23.917909 510.702933 100.171776 587.093333c26.760533 22.9376 261.461333 231.0144 398.9504 353.143467 22.9376 19.114667 49.629867 28.672 76.3904 28.672z m-337.92-477.184a56.797867 56.797867 0 0 1-28.603733-9.557334 188.893867 188.893867 0 0 1-55.296-135.509333A191.419733 191.419733 0 0 1 344.429909 155.648a38.229333 38.229333 0 0 1 38.229334 38.229333 38.229333 38.229333 0 0 1-38.229334 38.161067c-62.941867 0-114.4832 51.541333-114.4832 114.4832 0 30.583467 13.312 59.1872 34.338134 80.213333a36.864 36.864 0 0 1 0 53.384534 37.6832 37.6832 0 0 1-26.760534 11.4688z" fill="#FE3F4D" p-id="1855"></path></svg>