<?xml version="1.0" standalone="no"?><!DOCTYPE svg PUBLIC "-//W3C//DTD SVG 1.1//EN" "http://www.w3.org/Graphics/SVG/1.1/DTD/svg11.dtd"><svg t="1589445273148" class="icon" viewBox="0 0 1024 1024" version="1.1" xmlns="http://www.w3.org/2000/svg" p-id="2950" xmlns:xlink="http://www.w3.org/1999/xlink" width="200" height="200"><defs><style type="text/css"></style></defs><path d="M959.901158 643.014672a36.966795 36.966795 0 0 0-47.839382 21.399228c-62.8139 164.373745-223.283398 274.878764-399.271042 274.878764-235.63861 0-427.292664-191.654054-427.292665-427.243243 0-235.63861 191.654054-427.292664 427.292665-427.292664 221.257143 0 408.315058 172.528185 425.859459 392.796911l36.966795-2.965251-36.522007 9.241699 37.016216-2.32278 36.472587-9.834749C991.925869 213.152124 772.398456 10.625483 512.790734 10.625483 236.281081 10.625483 11.366795 235.539768 11.366795 512.049421c0 276.460232 224.914286 501.374517 501.423939 501.374517 206.579151 0 394.823166-129.630888 468.460231-322.520463a37.016216 37.016216 0 0 0-21.349807-47.888803z" p-id="2951"></path><path d="M443.898069 309.275676a67.706564 67.706564 0 0 0-68.497297 0 67.706564 67.706564 0 0 0-34.248648 59.305019v286.83861c0 24.759846 12.8 46.949807 34.248648 59.35444 10.724324 6.177606 22.486486 9.29112 34.199228 9.29112 11.762162 0 23.573745-3.113514 34.248649-9.29112l248.389189-143.419305c21.448649-12.355212 34.199228-34.495753 34.199228-59.305019a67.706564 67.706564 0 0 0-34.199228-59.255599L443.898069 309.275676z m-28.664092 336.407722v-267.366796l231.487259 133.683398-231.487259 133.683398z" p-id="2952"></path></svg>