<?xml version="1.0" standalone="no"?><!DOCTYPE svg PUBLIC "-//W3C//DTD SVG 1.1//EN" "http://www.w3.org/Graphics/SVG/1.1/DTD/svg11.dtd"><svg t="1589880731660" class="icon" viewBox="0 0 1024 1024" version="1.1" xmlns="http://www.w3.org/2000/svg" p-id="1120" xmlns:xlink="http://www.w3.org/1999/xlink" width="200" height="200"><defs><style type="text/css"></style></defs><path d="M502.2125 899.28125c-210.628125 0-382.021875-171.365625-382.021875-381.99375 0-210.65625 171.39375-381.99375 382.021875-381.99375 210.65625 0 382.021875 171.3375 382.021875 381.99375 0 210.65625-171.39375 381.99375-382.021875 381.99375m0-820.265625C260.5625 79.015625 63.96875 275.665625 63.96875 517.2875 63.96875 758.9375 260.5625 955.53125 502.2125 955.53125s438.271875-196.59375 438.271875-438.24375c0-241.621875-196.59375-438.24375-438.271875-438.24375" p-id="1121"></path><path d="M417.8375 348.5375a28.125 28.125 0 0 0-28.125 28.125v281.25a28.125 28.125 0 0 0 56.25 0v-281.25a28.125 28.125 0 0 0-28.125-28.125M586.5875 348.5375a28.125 28.125 0 0 0-28.125 28.125v281.25a28.125 28.125 0 0 0 56.25 0v-281.25a28.125 28.125 0 0 0-28.125-28.125" p-id="1122"></path></svg>