<?xml version="1.0" standalone="no"?><!DOCTYPE svg PUBLIC "-//W3C//DTD SVG 1.1//EN" "http://www.w3.org/Graphics/SVG/1.1/DTD/svg11.dtd"><svg t="1589882036513" class="icon" viewBox="0 0 1026 1024" version="1.1" xmlns="http://www.w3.org/2000/svg" p-id="1648" xmlns:xlink="http://www.w3.org/1999/xlink" width="200.390625" height="200"><defs><style type="text/css"></style></defs><path d="M790.838 333.1h66.33v111.839l169.367-196.7L857.223 55.764v127.691h-66.324c-189.91 0-313.783 146.34-408.396 275.454C297.583 574.966 224.074 684.464 105.621 684.464H0v149.703h105.567c189.91 0 297.071-155.573 391.736-284.692C582.223 433.357 672.103 333.1 790.839 333.1z m-514.641 85.603l24.584-33.309c20.182-27.427 41.291-56.513 64.27-85.374-68.035-65.987-149.934-114.689-259.484-114.689H0v149.65s28.46-1.428 105.567 0c74.65 1.652 121.468 33.363 170.629 83.722z m581.024 271.513h-66.324c-72.323 0-144.518-41.911-196.246-97.516a1070.724 1070.724 0 0 1-15.62 21.275c-22.703 30.961-47.05 64.324-73.912 97.179 69.81 70.713 170.977 128.712 285.778 128.712h66.325v128.37L1026.535 771.2 857.223 579.078v111.138z" p-id="1649"></path></svg>