<?xml version="1.0" standalone="no"?><!DOCTYPE svg PUBLIC "-//W3C//DTD SVG 1.1//EN" "http://www.w3.org/Graphics/SVG/1.1/DTD/svg11.dtd"><svg t="1591858016172" class="icon" viewBox="0 0 1024 1024" version="1.1" xmlns="http://www.w3.org/2000/svg" p-id="3440" xmlns:xlink="http://www.w3.org/1999/xlink" width="200" height="200"><defs><style type="text/css"></style></defs><path d="M448 800c-19.2 0-32-12.8-32-32l0-128c0-19.2 12.8-32 32-32S480 620.8 480 640l0 128C480 787.2 467.2 800 448 800z" p-id="3441"></path><path d="M640 800c-19.2 0-32-12.8-32-32L608 576c0-19.2 12.8-32 32-32s32 12.8 32 32l0 192C672 787.2 659.2 800 640 800z" p-id="3442"></path><path d="M704 992 320 992c-89.6 0-160-70.4-160-160L160 448c0-19.2 12.8-32 32-32S224 428.8 224 448l0 384c0 51.2 44.8 96 96 96l384 0c51.2 0 96-44.8 96-96L800 448c0-19.2 12.8-32 32-32s32 12.8 32 32l0 384C864 921.6 793.6 992 704 992z" p-id="3443"></path><path d="M896 288l-256 0C620.8 288 608 275.2 608 256L608 192c0-19.2-12.8-32-32-32L448 160C428.8 160 416 172.8 416 192l0 64c0 19.2-12.8 32-32 32L128 288C108.8 288 96 275.2 96 256S108.8 224 128 224l224 0L352 192c0-51.2 44.8-96 96-96l128 0c51.2 0 96 44.8 96 96l0 32L896 224c19.2 0 32 12.8 32 32S915.2 288 896 288z" p-id="3444"></path></svg>